<svg xmlns="http://www.w3.org/2000/svg" width="13.604" height="20.208" viewBox="0 0 13.604 20.208">
  <g id="グループ_214" data-name="グループ 214" transform="translate(0 0)">
    <path id="パス_90" data-name="パス 90" d="M1.607,9.412c0,3.387,2.062,5.845,4.907,5.845.467,0,.832.785.832,1.787,0,.952-.33,1.706-.761,1.782a.511.511,0,0,0-.071-.005C2.923,18.821,0,14.6,0,9.412S2.923,0,6.513,0c.467,0,.832.787.832,1.789,0,.95-.33,1.706-.761,1.782a.492.492,0,0,0-.071-.005C3.668,3.566,1.607,6.025,1.607,9.412Z" transform="translate(0 2.632) rotate(-21)" fill="#393939"/>
  </g>
</svg>
