<svg xmlns="http://www.w3.org/2000/svg" width="123.304" height="31" viewBox="0 0 123.304 31">
  <g id="グループ_1044" data-name="グループ 1044" transform="translate(-120 -46)">
    <path id="パス_1424" data-name="パス 1424" d="M13.7-4.392,15.24,0h3.792L11.976-18.912H7.584L.528,0H4.32L5.832-4.392ZM6.84-7.3,9.768-15.72,12.7-7.3ZM21.168-18.912v3.048H32.016L20.592-3.048V0H36.768V-3.048H24.936L36.384-15.864v-3.048Zm26.52,4.32v-4.944H44.424v5.208l-5.064.384.24,3.12,4.824-.432v7.128C44.424-1.2,45.1.816,49.68.816h6A22.02,22.02,0,0,0,59.568.552v-3.24a16.245,16.245,0,0,1-3.792.408H50.088c-2.208,0-2.4-.408-2.4-2.112v-7.152l8.5-.768c-.7,1.848-1.776,3.408-5.208,5.016l1.968,2.568c5.76-3.12,6.936-7.152,7.3-10.824ZM57.7-16.68a23.989,23.989,0,0,0-1.152-3.672l-2.088.384a15.981,15.981,0,0,1,1.008,3.792Zm3.768-.408a21.28,21.28,0,0,0-1.152-3.624l-2.064.384a18.478,18.478,0,0,1,1.008,3.744Zm20.376-.024a73.969,73.969,0,0,0-15.768-2.16l-.6,2.88a64.854,64.854,0,0,1,15.72,2.568ZM80.472-9.936a57.376,57.376,0,0,0-14.4-2.424l-.648,2.928A57.25,57.25,0,0,1,79.8-6.816ZM83.3-1.92A74.128,74.128,0,0,0,64.632-4.7l-.648,3.048C71.232-1.272,76.32-.6,82.344,1.488Z" transform="translate(160 72)" fill="#393939"/>
    <g id="グループ_795" data-name="グループ 795" transform="translate(120 46)">
      <path id="パス_302" data-name="パス 302" d="M14.208,0A14.208,14.208,0,1,1,0,14.208,14.208,14.208,0,0,1,14.208,0Z" transform="translate(2.583)" fill="#ef0846"/>
      <g id="パス_303" data-name="パス 303" transform="translate(0 11.625)" fill="#ef0846">
        <path d="M 9.6875 17.875 C 5.172900199890137 17.875 1.5 14.20209980010986 1.5 9.6875 C 1.5 5.172900199890137 5.172900199890137 1.5 9.6875 1.5 C 14.20209980010986 1.5 17.875 5.172900199890137 17.875 9.6875 C 17.875 14.20209980010986 14.20209980010986 17.875 9.6875 17.875 Z" stroke="none"/>
        <path d="M 9.6875 3 C 6 3 3 6 3 9.6875 C 3 13.375 6 16.375 9.6875 16.375 C 13.375 16.375 16.375 13.375 16.375 9.6875 C 16.375 6 13.375 3 9.6875 3 M 9.6875 0 C 15.03775978088379 0 19.375 4.337240219116211 19.375 9.6875 C 19.375 15.03775978088379 15.03775978088379 19.375 9.6875 19.375 C 4.337240219116211 19.375 0 15.03775978088379 0 9.6875 C 0 4.337240219116211 4.337240219116211 0 9.6875 0 Z" stroke="none" fill="#fff"/>
      </g>
    </g>
  </g>
</svg>
